<?xml version="1.0" standalone="no"?>
<!DOCTYPE svg PUBLIC "-//W3C//DTD SVG 20010904//EN"
 "http://www.w3.org/TR/2001/REC-SVG-20010904/DTD/svg10.dtd">
<svg version="1.0" xmlns="http://www.w3.org/2000/svg"
 width="500.000000pt" height="500.000000pt" viewBox="0 0 500.000000 500.000000"
 preserveAspectRatio="xMidYMid meet">
<metadata>
Created by potrace 1.14, written by Peter Selinger 2001-2017
</metadata>
<g transform="translate(0.000000,500.000000) scale(0.100000,-0.100000)"
fill="#000000" stroke="none">
<path d="M1455 4890 c-113 -23 -216 -83 -316 -185 -147 -148 -203 -316 -154
-460 42 -122 123 -189 292 -240 8 -3 2 -33 -22 -102 -19 -54 -50 -161 -70
-238 -145 -565 -154 -749 -48 -945 50 -91 192 -229 315 -304 l96 -58 -72 -72
c-110 -110 -189 -243 -215 -364 -26 -122 -5 -269 51 -361 19 -30 19 -34 5 -42
-49 -28 -119 -95 -142 -136 l-27 -48 -72 0 c-85 -1 -159 -34 -201 -90 -35 -45
-65 -143 -65 -208 1 -120 94 -306 237 -472 40 -47 73 -86 73 -88 0 -2 -18 -3
-40 -4 -88 -2 -257 -70 -280 -113 -26 -48 83 -110 293 -164 173 -45 296 -59
532 -61 182 -2 238 -6 325 -24 58 -12 146 -26 195 -30 96 -10 597 -6 655 4 19
3 85 15 145 27 86 16 157 21 325 23 118 1 229 5 245 8 17 3 64 11 105 17 213
31 455 116 474 166 10 27 -19 60 -76 88 -65 31 -185 64 -215 60 -33 -5 -28 13
15 60 187 209 271 381 259 532 -13 170 -103 263 -262 270 -68 3 -71 4 -89 36
-23 40 -123 138 -142 138 -23 0 -24 16 -4 53 125 233 53 524 -184 743 l-55 52
62 36 c216 126 358 286 402 451 22 83 26 212 10 325 -26 176 -130 601 -184
748 -21 58 -26 84 -18 87 94 29 123 42 170 75 223 160 177 470 -103 692 -123
97 -251 139 -361 118 -122 -23 -226 -106 -285 -226 l-36 -72 -34 14 c-54 23
-230 62 -324 73 -119 13 -366 6 -485 -14 -55 -9 -137 -30 -183 -45 l-83 -28
-10 27 c-71 188 -255 306 -424 271z m-155 -1789 c0 -9 15 -46 33 -83 18 -38
33 -68 32 -68 -1 0 -19 9 -41 19 -30 15 -42 17 -53 8 -12 -10 -13 -9 -7 3 5 8
-3 2 -17 -13 -22 -25 -25 -34 -21 -95 5 -91 14 -131 40 -173 3 -5 3 -9 1 -9
-3 0 -19 23 -37 50 -40 63 -71 159 -71 226 -1 47 2 54 45 97 25 26 50 47 56
47 5 0 10 4 10 10 0 5 7 7 15 4 8 -4 15 -14 15 -23z m543 -1937 c-5 -199 -15
-251 -27 -147 -4 32 -9 69 -11 83 -2 14 -6 59 -10 102 -6 68 -4 77 12 80 31 8
39 -16 36 -118z m1198 -606 c3 -29 -9 -152 -17 -171 -5 -14 -8 -14 -20 -2 -8
7 -14 20 -14 29 0 8 -5 18 -10 21 -7 4 -8 11 -1 18 5 7 10 15 10 20 1 4 4 7 9
7 6 -1 21 46 24 78 1 6 5 12 10 12 4 0 9 -6 9 -12z"/>
</g>
</svg>
